<?xml version="1.0" encoding="UTF-8" standalone="no" ?>
<!DOCTYPE svg PUBLIC "-//W3C//DTD SVG 1.1//EN" "http://www.w3.org/Graphics/SVG/1.1/DTD/svg11.dtd">
<svg xmlns="http://www.w3.org/2000/svg" xmlns:xlink="http://www.w3.org/1999/xlink" version="1.1" width="1080" height="1080" viewBox="0 0 1080 1080" xml:space="preserve">
<desc>Created with Fabric.js 5.2.4</desc>
<defs>
</defs>
<g transform="matrix(1 0 0 1 540 540)" id="56e0451e-bd0e-4cd3-994d-f40a810697f3"  >
<rect style="stroke: none; stroke-width: 1; stroke-dasharray: none; stroke-linecap: butt; stroke-dashoffset: 0; stroke-linejoin: miter; stroke-miterlimit: 4; fill: rgb(255,255,255); fill-rule: nonzero; opacity: 1; visibility: hidden;" vector-effect="non-scaling-stroke"  x="-540" y="-540" rx="0" ry="0" width="1080" height="1080" />
</g>
<g transform="matrix(1 0 0 1 540 540)" id="7925c50d-c533-432c-8254-5c0c8067214b"  >
</g>
<g transform="matrix(0.75 0 0 0.75 540 540)"  >
<path style="stroke: none; stroke-width: 1; stroke-dasharray: none; stroke-linecap: butt; stroke-dashoffset: 0; stroke-linejoin: miter; stroke-miterlimit: 4; fill: rgb(13,152,186); fill-rule: nonzero; opacity: 1;"  transform=" translate(-720, -208)" d="M 0 96 L 30 106.7 C 60 117 120 139 180 154.7 C 240 171 300 181 360 186.7 C 420 192 480 192 540 181.3 C 600 171 660 149 720 154.7 C 780 160 840 192 900 208 C 960 224 1020 224 1080 208 C 1140 192 1200 160 1260 138.7 C 1320 117 1380 107 1410 101.3 L 1440 96 L 1440 320 L 1410 320 C 1380 320 1320 320 1260 320 C 1200 320 1140 320 1080 320 C 1020 320 960 320 900 320 C 840 320 780 320 720 320 C 660 320 600 320 540 320 C 480 320 420 320 360 320 C 300 320 240 320 180 320 C 120 320 60 320 30 320 L 0 320 Z" stroke-linecap="round" />
</g>
</svg>